<svg xmlns="http://www.w3.org/2000/svg" viewBox="0 0 64 64" width="64" height="64">
  <title>Chef Hat</title>
  <g fill="none" fill-rule="evenodd" stroke="none">
    <path d="M10 38c0-8.8 7.2-16 16-16 1.8 0 3.6.3 5.2.9C34.6 20 38 16.6 42.8 16.6 48.4 16.6 53 21.2 53 26.8c0 .8-.1 1.6-.3 2.4C59.6 31.6 64 36.6 64 42.8 64 52 56 60 46 60H18c-4.4 0-8-3.6-8-8 0-5 4.6-12 0-14z" fill="#dc2626"/>
    <path d="M14 46c0-4.4 3.6-8 8-8h20c4.4 0 8 3.6 8 8v4H14v-4z" fill="#ef4444"/>
    <path d="M18 50h28v2a4 4 0 0 1-4 4H22a4 4 0 0 1-4-4v-2z" fill="#b91c1c"/>
    <circle cx="24" cy="46" r="1" fill="#7f1d1d"/>
    <circle cx="40" cy="46" r="1" fill="#7f1d1d"/>
  </g>
</svg>
